<?xml version="1.0" encoding="utf-8"?>
<!-- Generator: Adobe Illustrator 23.0.6, SVG Export Plug-In . SVG Version: 6.00 Build 0)  -->
<svg version="1.1" id="Capa_1" xmlns="http://www.w3.org/2000/svg" xmlns:xlink="http://www.w3.org/1999/xlink" x="0px" y="0px"
	 viewBox="0 0 512 512" style="enable-background:new 0 0 512 512;" xml:space="preserve">
<style type="text/css">
	.st0{display:none;fill:#2979FF;}
	.st1{display:none;}
	.st2{display:inline;fill:#FFFFFF;}
	.st3{fill:#2196F3;}
</style>
<rect class="st0" width="512" height="512"/>
<circle class="st0" cx="256" cy="256" r="256"/>
<g class="st1">
	<path class="st2" d="M420.42,149.72c-3.56-3.45-8.58-5.17-15.06-5.17H245.71c-3.04,0-5.75,0.38-8.15,1.14l17.87,39h45.8v99.92
		l21.65,47.23c4.36,9.1,5.86,17.39,4.49,24.87c-0.83,4.51-2.51,8.39-5.03,11.65c1.08,0.09,2.19,0.14,3.35,0.14
		c7.95,0,13.96-2.2,18.04-6.59c4.08-4.39,6.12-10.55,6.12-18.5V184.69h55.51c6.48,0,11.5-1.77,15.06-5.33
		c3.55-3.55,5.33-8.47,5.33-14.74C425.75,158.14,423.97,153.17,420.42,149.72"/>
	<path class="st2" d="M303.28,337.41l-79.92-173.77c-3.1-7.02-6.92-12.13-11.46-15.33c-4.55-3.2-9.81-4.8-15.8-4.8
		c-5.99,0-11.26,1.6-15.8,4.8c-4.54,3.2-8.47,8.31-11.77,15.33l-79.3,173.77c-2.69,5.58-3.56,10.64-2.63,15.18
		c0.93,4.54,3.2,8.16,6.82,10.84c3.61,2.68,8.31,4.03,14.09,4.03c6.61,0,11.62-1.6,15.02-4.8c3.41-3.2,6.66-8.41,9.76-15.64
		l12.62-29.74h102.16l12.84,29.74c2.89,7.02,6.24,12.19,10.07,15.49c3.82,3.3,9.24,4.96,16.26,4.96c5.57,0,10.11-1.29,13.63-3.87
		c3.51-2.58,5.63-6.2,6.35-10.84C306.95,348.09,305.96,342.98,303.28,337.41z M195.49,197.4h0.62l34.85,82.4h-70.05L195.49,197.4z"
		/>
</g>
<g>
	<path class="st3" d="M420.42,149.72c-3.56-3.45-8.58-5.17-15.06-5.17H245.71c-3.04,0-5.75,0.38-8.15,1.14l17.87,39h45.8v99.92
		l21.65,47.23c4.36,9.1,5.86,17.39,4.49,24.87c-0.83,4.51-2.51,8.39-5.03,11.65c1.08,0.09,2.19,0.14,3.35,0.14
		c7.95,0,13.96-2.2,18.04-6.59c4.08-4.39,6.12-10.55,6.12-18.5V184.69h55.51c6.48,0,11.5-1.77,15.06-5.33
		c3.55-3.55,5.33-8.47,5.33-14.74C425.75,158.14,423.97,153.17,420.42,149.72"/>
	<path class="st3" d="M303.28,337.41l-79.92-173.77c-3.1-7.02-6.92-12.13-11.46-15.33c-4.55-3.2-9.81-4.8-15.8-4.8
		c-5.99,0-11.26,1.6-15.8,4.8c-4.54,3.2-8.47,8.31-11.77,15.33l-79.3,173.77c-2.69,5.58-3.56,10.64-2.63,15.18
		c0.93,4.54,3.2,8.16,6.82,10.84c3.61,2.68,8.31,4.03,14.09,4.03c6.61,0,11.62-1.6,15.02-4.8c3.41-3.2,6.66-8.41,9.76-15.64
		l12.62-29.74h102.16l12.84,29.74c2.89,7.02,6.24,12.19,10.07,15.49c3.82,3.3,9.24,4.96,16.26,4.96c5.57,0,10.11-1.29,13.63-3.87
		c3.51-2.58,5.63-6.2,6.35-10.84C306.95,348.09,305.96,342.98,303.28,337.41z M195.49,197.4h0.62l34.85,82.4h-70.05L195.49,197.4z"
		/>
</g>
</svg>
